<svg width="42" height="42" viewBox="0 0 42 42" fill="none" xmlns="http://www.w3.org/2000/svg">
<path d="M40.3347 36.3959V6.01828L36.0586 1.74219H1.81909V5.60406V35.9817L6.09518 40.2578H40.3347V36.3959Z" fill="#E1FBF6" stroke="#0DCE95" stroke-width="2"/>
<circle cx="20.8804" cy="21.1004" r="2.69998" stroke="#0DCE95" stroke-width="2"/>
<path d="M9.78003 18.3252H10.4906C12.044 18.3252 13.5112 17.6109 14.4694 16.3882V16.3882C15.7991 14.6914 17.8352 13.7002 19.991 13.7002H22.8309C24.8708 13.7002 26.7797 14.7058 27.9333 16.3882V16.3882C28.7647 17.6005 30.1402 18.3252 31.6101 18.3252H31.9799" stroke="#0DCE95" stroke-width="2"/>
<path d="M31.9792 23.875L31.2687 23.875C29.7153 23.875 28.2481 24.5893 27.2899 25.812V25.812C25.9601 27.5088 23.9241 28.5 21.7683 28.5L18.9284 28.5C16.8885 28.5 14.9796 27.4944 13.8259 25.812V25.812C12.9946 24.5996 11.6191 23.875 10.1491 23.875L9.77939 23.875" stroke="#0DCE95" stroke-width="2"/>
</svg>
