<svg width="42" height="42" viewBox="0 0 42 42" fill="none" xmlns="http://www.w3.org/2000/svg">
<path d="M40.3347 36.3959V6.01828L36.0586 1.74219H1.81909V5.60406V35.9817L6.09518 40.2578H40.3347V36.3959Z" fill="#E1FBF6" stroke="#0DCE95" stroke-width="2"/>
<path fill-rule="evenodd" clip-rule="evenodd" d="M12.8722 19.3465C12.374 21.1291 12.5092 23.0292 13.2549 24.7232C14.0006 26.4172 15.3106 27.8002 16.9617 28.6366C18.6128 29.473 20.5028 29.711 22.3097 29.3101C24.1166 28.9092 25.7286 27.8942 26.871 26.438C27.2119 26.0035 27.8405 25.9276 28.2751 26.2685C28.7096 26.6094 28.7855 27.238 28.4446 27.6725C27.0165 29.4928 25.0015 30.7615 22.7429 31.2626C20.4843 31.7637 18.1217 31.4662 16.0579 30.4207C13.9941 29.3752 12.3566 27.6464 11.4244 25.529C10.4923 23.4115 10.3233 21.0363 10.946 18.8082C11.5688 16.58 12.9449 14.6367 14.8398 13.3094C16.7347 11.9821 19.0313 11.3529 21.3381 11.529C23.645 11.7051 25.8194 12.6757 27.4909 14.2752C27.8073 14.578 28.1019 14.8998 28.3737 15.2381L28.9857 13.5008C29.0818 13.228 29.2912 13.0102 29.56 12.9035L30.5769 12.5V20.5L30.512 20.4351C30.5058 20.9285 30.1352 21.3532 29.6319 21.414C29.0836 21.4802 28.5854 21.0894 28.5192 20.5411C28.2974 18.7036 27.4453 16.9999 26.1081 15.7202C24.7709 14.4405 23.0314 13.6641 21.1859 13.5232C19.3404 13.3823 17.5032 13.8857 15.9872 14.9475C14.4713 16.0094 13.3704 17.564 12.8722 19.3465ZM20.0768 15.5H21.5768L21.9843 21.2056L25.577 24L24.5169 25.0841L20.6344 22.6601C20.5216 22.5897 20.4285 22.5011 20.356 22.401C19.922 22.2088 19.6297 21.7594 19.6659 21.2532L20.0768 15.5Z" fill="#0DCE95"/>
</svg>
