<svg width="24" height="24" viewBox="0 0 24 24" fill="none" xmlns="http://www.w3.org/2000/svg">
<path d="M13 6.75C13 6.19772 12.5523 5.75 12 5.75C11.4477 5.75 11 6.19772 11 6.75H13ZM12 12H11C11 12.5523 11.4477 13 12 13V12ZM17.25 13C17.8023 13 18.25 12.5523 18.25 12C18.25 11.4477 17.8023 11 17.25 11V13ZM20 12C20 16.4183 16.4183 20 12 20V22C17.5228 22 22 17.5228 22 12H20ZM12 20C7.58172 20 4 16.4183 4 12H2C2 17.5228 6.47715 22 12 22V20ZM4 12C4 7.58172 7.58172 4 12 4V2C6.47715 2 2 6.47715 2 12H4ZM12 4C16.4183 4 20 7.58172 20 12H22C22 6.47715 17.5228 2 12 2V4ZM11 6.75V12H13V6.75H11ZM12 13H17.25V11H12V13Z" fill="#151221"/>
</svg>
