<svg width="24" height="24" viewBox="0 0 24 24" fill="none" xmlns="http://www.w3.org/2000/svg">
<path d="M12 22C6.477 22 2 17.523 2 12C2 6.477 6.477 2 12 2C17.523 2 22 6.477 22 12C22 17.523 17.523 22 12 22ZM12 20C14.1217 20 16.1566 19.1571 17.6569 17.6569C19.1571 16.1566 20 14.1217 20 12C20 9.87827 19.1571 7.84344 17.6569 6.34315C16.1566 4.84285 14.1217 4 12 4C9.87827 4 7.84344 4.84285 6.34315 6.34315C4.84285 7.84344 4 9.87827 4 12C4 14.1217 4.84285 16.1566 6.34315 17.6569C7.84344 19.1571 9.87827 20 12 20Z" fill="#6F6C82"/>
<path fill-rule="evenodd" clip-rule="evenodd" d="M16.7083 7.29437C16.3171 6.90318 15.6829 6.90318 15.2917 7.29437L12.5248 10.0613C12.3585 10.0166 12.1838 9.9928 12.0034 9.9928C10.897 9.9928 10 10.8898 10 11.9962C10 13.1027 10.897 13.9996 12.0034 13.9996C13.1099 13.9996 14.0068 13.1027 14.0068 11.9962C14.0068 11.8176 13.9835 11.6445 13.9396 11.4797L16.7083 8.71101C17.0995 8.31981 17.0995 7.68556 16.7083 7.29437Z" fill="#6F6C82"/>
</svg>
