<svg xmlns="http://www.w3.org/2000/svg" width="20" height="20" viewBox="0 0 20 20" fill="none">
<path d="M10 20C4.477 20 0 15.523 0 10C0 4.477 4.477 0 10 0C15.523 0 20 4.477 20 10C20 15.523 15.523 20 10 20ZM10 18C12.1217 18 14.1566 17.1571 15.6569 15.6569C17.1571 14.1566 18 12.1217 18 10C18 7.87827 17.1571 5.84344 15.6569 4.34315C14.1566 2.84285 12.1217 2 10 2C7.87827 2 5.84344 2.84285 4.34315 4.34315C2.84285 5.84344 2 7.87827 2 10C2 12.1217 2.84285 14.1566 4.34315 15.6569C5.84344 17.1571 7.87827 18 10 18Z" fill="#6F6C82"/>
<path fill-rule="evenodd" clip-rule="evenodd" d="M14.7083 5.29486C14.3171 4.90367 13.6829 4.90367 13.2917 5.29486L10.5248 8.06179C10.3585 8.01711 10.1838 7.99329 10.0034 7.99329C8.89696 7.99329 8 8.89025 8 9.99671C8 11.1032 8.89696 12.0001 10.0034 12.0001C11.1099 12.0001 12.0068 11.1032 12.0068 9.99671C12.0068 9.81811 11.9835 9.64497 11.9396 9.48018L14.7083 6.71149C15.0995 6.3203 15.0995 5.68605 14.7083 5.29486Z" fill="#6F6C82"/>
</svg>