<svg width="24" height="24" viewBox="0 0 24 24" fill="none" xmlns="http://www.w3.org/2000/svg">
<g clip-path="url(#clip0_528_1099)">
<path d="M9.14282 6.28585V3.42871" stroke="#6F6C82" stroke-width="2" stroke-miterlimit="10" stroke-linecap="round"/>
<path d="M14.8572 6.28585V3.42871" stroke="#6F6C82" stroke-width="2" stroke-miterlimit="10" stroke-linecap="round"/>
<path d="M9.14282 20.571V17.7139" stroke="#6F6C82" stroke-width="2" stroke-miterlimit="10" stroke-linecap="round"/>
<path d="M14.8572 20.571V17.7139" stroke="#6F6C82" stroke-width="2" stroke-miterlimit="10" stroke-linecap="round"/>
<path d="M17.7144 9.14258H20.5715" stroke="#6F6C82" stroke-width="2" stroke-miterlimit="10" stroke-linecap="round"/>
<path d="M17.7144 14.8574H20.5715" stroke="#6F6C82" stroke-width="2" stroke-miterlimit="10" stroke-linecap="round"/>
<path d="M3.42859 9.14258H6.28573" stroke="#6F6C82" stroke-width="2" stroke-miterlimit="10" stroke-linecap="round"/>
<path d="M3.42859 14.8574H6.28573" stroke="#6F6C82" stroke-width="2" stroke-miterlimit="10" stroke-linecap="round"/>
<path d="M14.7067 17.7147H9.29316C7.63301 17.7147 6.28564 16.3673 6.28564 14.7072V9.29365C6.28564 7.6335 7.63301 6.28613 9.29316 6.28613H14.7067C16.3668 6.28613 17.7142 7.6335 17.7142 9.29365V14.7072C17.7142 16.3673 16.3668 17.7147 14.7067 17.7147Z" stroke="#6F6C82" stroke-width="2" stroke-miterlimit="10"/>
</g>
<defs>
<clipPath id="clip0_528_1099">
<rect width="20" height="20" fill="white" transform="translate(2 2)"/>
</clipPath>
</defs>
</svg>
