<svg width="24" height="24" viewBox="0 0 24 24" fill="none" xmlns="http://www.w3.org/2000/svg">
<path d="M8.5875 6.78L12 3M12 3L15.4125 6.78M12 3V13.08M15.9 10.2H17.85C18.0224 10.2 18.1877 10.2759 18.3096 10.4109C18.4315 10.5459 18.5 10.729 18.5 10.92V20.28C18.5 20.471 18.4315 20.6541 18.3096 20.7891C18.1877 20.9241 18.0224 21 17.85 21H6.15C5.97761 21 5.81228 20.9241 5.69038 20.7891C5.56848 20.6541 5.5 20.471 5.5 20.28V10.92C5.5 10.729 5.56848 10.5459 5.69038 10.4109C5.81228 10.2759 5.97761 10.2 6.15 10.2H8.1" stroke="white" stroke-width="2" stroke-linecap="round" stroke-linejoin="round"/>
</svg>
