<svg width="25" height="24" viewBox="0 0 25 24" fill="none" xmlns="http://www.w3.org/2000/svg">
<path d="M9.0875 6.78L12.5 3M12.5 3L15.9125 6.78M12.5 3V13.08M16.4 10.2H18.35C18.5224 10.2 18.6877 10.2759 18.8096 10.4109C18.9315 10.5459 19 10.729 19 10.92V20.28C19 20.471 18.9315 20.6541 18.8096 20.7891C18.6877 20.9241 18.5224 21 18.35 21H6.65C6.47761 21 6.31228 20.9241 6.19038 20.7891C6.06848 20.6541 6 20.471 6 20.28V10.92C6 10.729 6.06848 10.5459 6.19038 10.4109C6.31228 10.2759 6.47761 10.2 6.65 10.2H8.6" stroke="#151221" stroke-width="2" stroke-linecap="round" stroke-linejoin="round"/>
</svg>
