<svg width="72" height="72" viewBox="0 0 72 72" fill="none" xmlns="http://www.w3.org/2000/svg">
<path d="M9 55.5V18.5526C9 18.0082 9.22213 17.4861 9.61752 17.1012C10.0129 16.7163 10.5492 16.5 11.1083 16.5H25.1551C25.611 16.5018 26.0543 16.6457 26.4201 16.9105L33.7466 22.2474C34.1125 22.5122 34.5558 22.6561 35.0116 22.6579H53.2751C53.8343 22.6579 54.3705 22.8742 54.7659 23.2591C55.1613 23.644 55.3835 24.1661 55.3835 24.7105V30.8684M9 55.5L16.9063 36.2566C17.0605 35.8762 17.3292 35.55 17.6773 35.3211C18.0254 35.0921 18.4364 34.971 18.8565 34.9737H31.5592C31.9701 34.9694 32.3716 34.8539 32.7188 34.6401L37.9897 31.202C38.3369 30.9882 38.7384 30.8727 39.1492 30.8684H60.8915C61.2249 30.8684 61.5535 30.9453 61.8504 31.0929C62.1474 31.2405 62.4041 31.4546 62.5996 31.7175C62.795 31.9805 62.9237 32.2848 62.9749 32.6055C63.0262 32.9262 62.9986 33.2542 62.8944 33.5625L55.3835 55.5H9Z" stroke="#6F6C82" stroke-width="6" stroke-linecap="round" stroke-linejoin="round"/>
</svg>
