<svg xmlns="http://www.w3.org/2000/svg" width="114" height="38" viewBox="0 0 114 38" fill="none">
  <g clip-path="url(#clip0_79_2081)">
    <path d="M42.1754 5.95834H43.4394L43.8999 3.87319H45.3941C47.2508 3.87319 47.8484 2.57243 47.8484 1.69551C47.8484 0.803971 47.1822 0.0585938 46.0456 0.0585938H43.4834L42.1754 5.95834ZM45.4577 2.76734H44.1498L44.5073 1.14012H45.7811C46.2367 1.14012 46.5257 1.43244 46.5257 1.82218C46.5208 2.35321 46.1338 2.76734 45.4577 2.76734ZM47.7113 4.13141C47.7113 5.24706 48.4658 6.06552 49.8375 6.06552C51.2974 6.06552 52.3262 4.85731 52.3262 3.52731C52.3262 2.41167 51.562 1.58347 50.1903 1.58347C48.7401 1.58347 47.7113 2.79654 47.7113 4.13141ZM51.1505 3.58089C51.1505 4.35064 50.6361 5.0668 49.8767 5.0668C49.2448 5.0668 48.8723 4.68679 48.8723 4.06807C48.8723 3.30807 49.3868 2.58221 50.1511 2.58221C50.7781 2.58221 51.1505 2.96218 51.1505 3.58089ZM56.4218 5.95834H57.622L59.8805 1.68576H58.6704L57.2203 4.56013L56.9264 1.68576H55.9221L54.3397 4.56013L54.1682 1.68576H53.0415L53.3991 5.95834H54.6092L56.1572 3.04988L56.4218 5.95834ZM59.6551 4.14604C59.6551 5.33962 60.5271 6.06552 61.8793 6.06552C62.4132 6.06552 62.9815 5.90475 63.3979 5.62219L63.0403 4.85242C62.7758 5.05706 62.33 5.16911 61.9576 5.16911C61.1689 5.16911 60.7819 4.64785 60.7819 4.28246V4.17524H63.976C64.0201 4.03396 64.0642 3.73194 64.0642 3.48348C64.0642 2.28989 63.2265 1.57371 62.134 1.57371C60.7035 1.58346 59.6551 2.76245 59.6551 4.14604ZM63.0501 3.42502H60.8995C60.9974 2.95733 61.4579 2.47499 62.0654 2.47499C62.7513 2.47499 63.0501 2.90858 63.0501 3.33243V3.42502ZM64.4022 5.95834H65.529L66.1414 3.16192C66.401 2.87936 66.7978 2.65036 67.2094 2.65036C67.3955 2.65036 67.5572 2.68452 67.6258 2.704L67.8658 1.58834C67.1898 1.58834 66.7293 1.84167 66.3471 2.2509L66.4794 1.68576H65.3526L64.4022 5.95834ZM67.7727 4.14604C67.7727 5.33962 68.6448 6.06552 69.9969 6.06552C70.5309 6.06552 71.0992 5.90475 71.5156 5.62219L71.1579 4.85242C70.8934 5.05706 70.4476 5.16911 70.0753 5.16911C69.2865 5.16911 68.8995 4.64785 68.8995 4.28246V4.17524H72.0888C72.1328 4.03396 72.1769 3.73194 72.1769 3.48348C72.1769 2.28989 71.3392 1.57371 70.2467 1.57371C68.8211 1.58346 67.7727 2.76245 67.7727 4.14604ZM71.1677 3.42502H69.0171C69.1151 2.95733 69.5756 2.47499 70.183 2.47499C70.8689 2.47499 71.1677 2.90858 71.1677 3.33243V3.42502ZM76.3068 2.25578C76.0226 1.83193 75.5083 1.58347 74.94 1.58347C73.4752 1.58347 72.6717 3.00601 72.6717 4.29703C72.6717 5.42727 73.3282 6.06552 74.308 6.06552C74.8224 6.06552 75.2339 5.85603 75.5964 5.42731L75.474 5.95834H76.6105L77.9284 0.0585938H76.7918L76.3068 2.25578ZM73.8524 4.06807C73.8524 3.28371 74.3766 2.58221 75.1163 2.58221C75.5719 2.58221 75.9345 2.79652 76.1206 3.07908L75.7924 4.56501C75.5621 4.85731 75.2045 5.07167 74.8077 5.07167C74.2639 5.0668 73.8524 4.67705 73.8524 4.06807ZM81.2548 5.39316C81.5389 5.82188 82.0386 6.06552 82.6216 6.06552C84.0815 6.06552 84.88 4.63321 84.88 3.35193C84.88 2.22168 84.2138 1.58347 83.2536 1.58347C82.7392 1.58347 82.3178 1.79786 81.9553 2.2217L82.4354 0.0634704H81.3087L80.0006 5.96321H81.1274L81.2548 5.39316ZM83.6994 3.58089C83.6994 4.36525 83.185 5.0668 82.4354 5.0668C81.9798 5.0668 81.6173 4.8622 81.4311 4.57963L81.7594 3.09371C81.9994 2.80141 82.3472 2.58221 82.7441 2.58221C83.2927 2.58221 83.6994 2.97192 83.6994 3.58089ZM85.0809 6.61603L84.7086 7.59039C84.9143 7.66347 85.1789 7.69757 85.4287 7.69757C86.1391 7.69757 86.6192 7.4248 87.0895 6.6648L90.2199 1.69551H88.9756L87.1777 4.66729L86.722 1.69551H85.5463L86.3105 5.99244L86.046 6.38706C85.8941 6.61116 85.7422 6.68911 85.512 6.68911C85.3552 6.68911 85.1789 6.65988 85.0809 6.61603Z" fill="#B1B2B4"/>
    <path d="M46.3493 14.123H44.1791V33.0451H46.3493V14.123Z" fill="#B1B2B4"/>
    <path d="M53.3353 23.5696C53.3353 18.2691 57.8032 13.7773 63.0598 13.7773C68.3458 13.7773 72.75 18.2302 72.75 23.5696C72.75 28.9043 68.3164 33.362 63.0598 33.362C57.8375 33.3912 53.3353 28.9043 53.3353 23.5696ZM70.5798 23.5696C70.5798 19.3653 67.1505 15.7845 63.0598 15.7845C58.9692 15.7845 55.5105 19.3604 55.5105 23.5696C55.5105 27.8081 58.9692 31.384 63.0598 31.384C67.1505 31.3791 70.5798 27.8081 70.5798 23.5696Z" fill="#B1B2B4"/>
    <path d="M83.8853 16.1644H77.502V14.123H92.4145V16.1644H86.0262V33.0451H83.8559L83.8853 16.1644Z" fill="#B1B2B4"/>
    <path d="M103.8 16.7587L96.5936 33.0451H94.2323L102.129 15.19C102.414 14.5275 103.075 14.123 103.766 14.123C104.486 14.123 105.118 14.5323 105.402 15.19L113.299 33.0451H110.938L103.8 16.7587Z" fill="#B1B2B4"/>
    <path d="M22.3786 12.1747C23.3535 12.1747 24.1422 11.3903 24.1422 10.416C24.1422 9.44647 23.3535 8.66211 22.3786 8.66211C21.4037 8.66211 20.6149 9.44647 20.6149 10.416C20.6198 11.3903 21.4086 12.1747 22.3786 12.1747Z" fill="#B1B2B4"/>
    <path d="M24.3626 37.0018C25.3375 37.0018 26.1262 36.2175 26.1262 35.2431C26.1262 34.2736 25.3375 33.4893 24.3626 33.4893C23.3877 33.4893 22.5989 34.2736 22.5989 35.2431C22.5989 36.2126 23.3877 37.0018 24.3626 37.0018Z" fill="#B1B2B4"/>
    <path d="M22.8832 16.5695C23.7014 16.5695 24.3627 15.9069 24.3627 15.0933C24.3627 14.2798 23.7014 13.6172 22.8832 13.6172C22.0651 13.6172 21.4037 14.2798 21.4037 15.0933C21.4037 15.9069 22.0651 16.5695 22.8832 16.5695Z" fill="#B1B2B4"/>
    <path d="M26.8123 17.1339C27.6304 17.1339 28.2918 16.4714 28.2918 15.6578C28.2918 14.8393 27.6304 14.1816 26.8123 14.1816C25.9941 14.1816 25.3328 14.8442 25.3328 15.6578C25.3377 16.4763 25.999 17.1339 26.8123 17.1339Z" fill="#B1B2B4"/>
    <path d="M22.3784 20.3059C23.074 20.3059 23.6374 19.7456 23.6374 19.0489C23.6374 18.3571 23.074 17.792 22.3784 17.792C21.6827 17.792 21.1193 18.3522 21.1193 19.0489C21.1193 19.7456 21.6827 20.3059 22.3784 20.3059Z" fill="#B1B2B4"/>
    <path d="M26.3127 20.8371C27.0083 20.8371 27.5717 20.2768 27.5717 19.5801C27.5717 18.8834 27.0083 18.3232 26.3127 18.3232C25.617 18.3232 25.0536 18.8834 25.0536 19.5801C25.0536 20.2768 25.617 20.8371 26.3127 20.8371Z" fill="#B1B2B4"/>
    <path d="M29.4576 22.0637C30.1532 22.0637 30.7166 21.4985 30.7166 20.8067C30.7166 20.1149 30.1532 19.5498 29.4576 19.5498C28.7619 19.5498 28.1985 20.1101 28.1985 20.8067C28.1985 21.4985 28.7619 22.0637 29.4576 22.0637Z" fill="#B1B2B4"/>
    <path d="M25.1465 23.8525C25.754 23.8525 26.2488 23.3604 26.2488 22.7563C26.2488 22.1522 25.754 21.6553 25.1465 21.6553C24.539 21.6553 24.0443 22.1473 24.0443 22.7563C24.0491 23.3555 24.539 23.8525 25.1465 23.8525Z" fill="#B1B2B4"/>
    <path d="M21.2174 23.3163C21.8249 23.3163 22.3197 22.8243 22.3197 22.2153C22.3197 21.6063 21.8249 21.1191 21.2174 21.1191C20.61 21.1191 20.1152 21.6063 20.1152 22.2153C20.1152 22.8243 20.61 23.3163 21.2174 23.3163Z" fill="#B1B2B4"/>
    <path d="M28.3259 25.0702C28.9334 25.0702 29.4282 24.583 29.4282 23.9741C29.4282 23.3651 28.9334 22.873 28.3259 22.873C27.7184 22.873 27.2236 23.3651 27.2236 23.9741C27.2236 24.583 27.7184 25.0702 28.3259 25.0702Z" fill="#B1B2B4"/>
    <path d="M23.574 26.1413C24.0982 26.1413 24.5195 25.7174 24.5195 25.201C24.5195 24.6797 24.0982 24.2607 23.574 24.2607C23.0498 24.2607 22.6285 24.6797 22.6285 25.201C22.6285 25.7174 23.0547 26.1413 23.574 26.1413Z" fill="#B1B2B4"/>
    <path d="M26.7533 27.3356C27.2775 27.3356 27.6988 26.9118 27.6988 26.3954C27.6988 25.8741 27.2775 25.4551 26.7533 25.4551C26.234 25.4551 25.8078 25.8741 25.8078 26.3954C25.8078 26.9118 26.2291 27.3356 26.7533 27.3356Z" fill="#B1B2B4"/>
    <path d="M19.6743 25.5768C20.1985 25.5768 20.6198 25.1578 20.6198 24.6365C20.6198 24.1152 20.1985 23.6963 19.6743 23.6963C19.1501 23.6963 18.7288 24.1201 18.7288 24.6365C18.7288 25.1578 19.1501 25.5768 19.6743 25.5768Z" fill="#B1B2B4"/>
    <path d="M21.8445 27.6772C22.2805 27.6772 22.6333 27.3263 22.6333 26.8928C22.6333 26.4592 22.2805 26.1084 21.8445 26.1084C21.4085 26.1084 21.0558 26.4592 21.0558 26.8928C21.0558 27.3263 21.4085 27.6772 21.8445 27.6772Z" fill="#B1B2B4"/>
    <path d="M23.1968 29.8445C23.5789 29.8445 23.8876 29.5376 23.8876 29.1576C23.8876 28.7776 23.5789 28.4658 23.1968 28.4658C22.8147 28.4658 22.506 28.7727 22.506 29.1576C22.506 29.5424 22.8147 29.8445 23.1968 29.8445Z" fill="#B1B2B4"/>
    <path d="M21.531 30.2836C21.8445 30.2836 22.0993 30.0302 22.0993 29.7184C22.0993 29.4067 21.8445 29.1533 21.531 29.1533C21.2175 29.1533 20.9627 29.4067 20.9627 29.7184C20.9627 30.0302 21.2175 30.2836 21.531 30.2836Z" fill="#B1B2B4"/>
    <path d="M20.0516 28.6512C20.4337 28.6512 20.7424 28.3443 20.7424 27.9643C20.7424 27.5843 20.4337 27.2725 20.0516 27.2725C19.6695 27.2725 19.3608 27.5794 19.3608 27.9643C19.3608 28.3491 19.6695 28.6512 20.0516 28.6512Z" fill="#B1B2B4"/>
    <path d="M17.9108 27.1459C18.3468 27.1459 18.6995 26.7951 18.6995 26.3615C18.6995 25.9279 18.3468 25.5771 17.9108 25.5771C17.4748 25.5771 17.1221 25.9279 17.1221 26.3615C17.127 26.7951 17.4797 27.1459 17.9108 27.1459Z" fill="#B1B2B4"/>
    <path d="M17.8814 21.2455C18.3175 21.2455 18.6702 20.8947 18.6702 20.4611C18.6702 20.0275 18.3175 19.6768 17.8814 19.6768C17.4454 19.6768 17.0927 20.0275 17.0927 20.4611C17.0927 20.8947 17.4454 21.2455 17.8814 21.2455Z" fill="#B1B2B4"/>
    <path d="M18.2241 18.4841C18.6063 18.4841 18.9149 18.1773 18.9149 17.7973C18.9149 17.4173 18.6063 17.1055 18.2241 17.1055C17.842 17.1055 17.5334 17.4124 17.5334 17.7973C17.5334 18.1773 17.842 18.4841 18.2241 18.4841Z" fill="#B1B2B4"/>
    <path d="M18.9834 16.228C19.2969 16.228 19.5517 15.9746 19.5517 15.6628C19.5517 15.351 19.2969 15.0977 18.9834 15.0977C18.6698 15.0977 18.4151 15.351 18.4151 15.6628C18.4151 15.9746 18.6698 16.228 18.9834 16.228Z" fill="#B1B2B4"/>
    <path d="M17.661 15.1561C18.0432 15.1561 18.3518 14.8491 18.3518 14.4691C18.3518 14.0891 18.0432 13.7773 17.661 13.7773C17.2789 13.7773 16.9703 14.0843 16.9703 14.4691C16.9703 14.854 17.2789 15.1561 17.661 15.1561Z" fill="#B1B2B4"/>
    <path d="M24.9898 28.8705C25.4259 28.8705 25.7786 28.5197 25.7786 28.0861C25.7786 27.6525 25.4259 27.3018 24.9898 27.3018C24.5538 27.3018 24.2011 27.6525 24.2011 28.0861C24.206 28.5197 24.5587 28.8705 24.9898 28.8705Z" fill="#B1B2B4"/>
    <path d="M15.8676 14.2504C16.3036 14.2504 16.6563 13.8996 16.6563 13.466C16.6563 13.0324 16.3036 12.6816 15.8676 12.6816C15.4316 12.6816 15.0789 13.0324 15.0789 13.466C15.0789 13.8947 15.4316 14.2504 15.8676 14.2504Z" fill="#B1B2B4"/>
    <path d="M16.4019 17.5726C16.8379 17.5726 17.1906 17.2219 17.1906 16.7883C17.1906 16.3547 16.8379 16.0039 16.4019 16.0039C15.9659 16.0039 15.6132 16.3547 15.6132 16.7883C15.6181 17.2219 15.9708 17.5726 16.4019 17.5726Z" fill="#B1B2B4"/>
    <path d="M15.52 20.7438C16.0393 20.7438 16.4655 20.3199 16.4655 19.8035C16.4655 19.2823 16.0442 18.8633 15.52 18.8633C14.9958 18.8633 14.5745 19.2871 14.5745 19.8035C14.5794 20.3199 15.0007 20.7438 15.52 20.7438Z" fill="#B1B2B4"/>
    <path d="M12.659 20.7441C13.2665 20.7441 13.7612 20.252 13.7612 19.643C13.7612 19.0341 13.2665 18.5469 12.659 18.5469C12.0515 18.5469 11.5567 19.0341 11.5567 19.643C11.5567 20.252 12.0515 20.7441 12.659 20.7441Z" fill="#B1B2B4"/>
    <path d="M9.32276 21.4992C10.0184 21.4992 10.5818 20.9389 10.5818 20.2423C10.5818 19.5505 10.0184 18.9854 9.32276 18.9854C8.62711 18.9854 8.06372 19.5456 8.06372 20.2423C8.06372 20.9341 8.62711 21.4992 9.32276 21.4992Z" fill="#B1B2B4"/>
    <path d="M5.67306 23.2873C6.49119 23.2873 7.15255 22.6247 7.15255 21.8111C7.15255 20.9927 6.49119 20.335 5.67306 20.335C4.85491 20.335 4.19354 20.9975 4.19354 21.8111C4.19844 22.6247 4.85981 23.2873 5.67306 23.2873Z" fill="#B1B2B4"/>
    <path d="M1.89505 26.2977C2.86995 26.2977 3.65868 25.5085 3.65868 24.539C3.65868 23.5695 2.86995 22.7852 1.89505 22.7852C0.920146 22.7852 0.131409 23.5695 0.131409 24.539C0.131409 25.5085 0.925045 26.2977 1.89505 26.2977Z" fill="#B1B2B4"/>
    <path d="M4.19843 19.6144C5.01656 19.6144 5.67792 18.9519 5.67792 18.1383C5.67792 17.3247 5.01656 16.6621 4.19843 16.6621C3.3803 16.6621 2.71893 17.3247 2.71893 18.1383C2.71893 18.9519 3.3803 19.6144 4.19843 19.6144Z" fill="#B1B2B4"/>
    <path d="M7.84345 17.8263C8.53911 17.8263 9.10249 17.2612 9.10249 16.5694C9.10249 15.8776 8.53911 15.3125 7.84345 15.3125C7.1478 15.3125 6.58441 15.8727 6.58441 16.5694C6.58441 17.266 7.1478 17.8263 7.84345 17.8263Z" fill="#B1B2B4"/>
    <path d="M7.30927 14.4982C8.00493 14.4982 8.56831 13.9331 8.56831 13.2413C8.56831 12.5496 8.00493 11.9844 7.30927 11.9844C6.61362 11.9844 6.05023 12.5447 6.05023 13.2413C6.05023 13.938 6.61362 14.4982 7.30927 14.4982Z" fill="#B1B2B4"/>
    <path d="M10.6454 13.7441C11.2528 13.7441 11.7476 13.2569 11.7476 12.6479C11.7476 12.0389 11.2528 11.5469 10.6454 11.5469C10.0379 11.5469 9.54309 12.0389 9.54309 12.6479C9.54309 13.2569 10.0379 13.7441 10.6454 13.7441Z" fill="#B1B2B4"/>
    <path d="M13.5067 13.7487C14.0309 13.7487 14.4522 13.3297 14.4522 12.8084C14.4522 12.2871 14.0309 11.8682 13.5067 11.8682C12.9825 11.8682 12.5612 12.2871 12.5612 12.8084C12.5612 13.3248 12.9874 13.7487 13.5067 13.7487Z" fill="#B1B2B4"/>
    <path d="M14.0404 17.0759C14.5645 17.0759 14.9859 16.652 14.9859 16.1356C14.9859 15.6143 14.5645 15.1953 14.0404 15.1953C13.5162 15.1953 13.0948 15.6143 13.0948 16.1356C13.0948 16.652 13.5211 17.0759 14.0404 17.0759Z" fill="#B1B2B4"/>
    <path d="M11.1795 17.0995C11.787 17.0995 12.2818 16.6075 12.2818 15.9985C12.2818 15.3944 11.787 14.8975 11.1795 14.8975C10.5721 14.8975 10.0773 15.3895 10.0773 15.9985C10.0773 16.6075 10.5721 17.0995 11.1795 17.0995Z" fill="#B1B2B4"/>
    <path d="M8.06371 25.4554C8.37724 25.4554 8.63199 25.2021 8.63199 24.8903C8.63199 24.5785 8.37724 24.3252 8.06371 24.3252C7.75017 24.3252 7.49542 24.5785 7.49542 24.8903C7.49542 25.2021 7.75017 25.4554 8.06371 25.4554Z" fill="#B1B2B4"/>
    <path d="M10.327 25.1678C10.7091 25.1678 11.0177 24.8609 11.0177 24.476C11.0177 24.0912 10.7091 23.7842 10.327 23.7842C9.94487 23.7842 9.63623 24.0912 9.63623 24.476C9.63623 24.8609 9.94487 25.1678 10.327 25.1678Z" fill="#B1B2B4"/>
    <path d="M12.8156 24.2279C13.2516 24.2279 13.6043 23.8771 13.6043 23.4435C13.6043 23.0099 13.2516 22.6592 12.8156 22.6592C12.3796 22.6592 12.0269 23.0099 12.0269 23.4435C12.0269 23.8771 12.3796 24.2279 12.8156 24.2279Z" fill="#B1B2B4"/>
    <path d="M13.4135 26.737C13.9377 26.737 14.359 26.318 14.359 25.7967C14.359 25.2754 13.9377 24.8564 13.4135 24.8564C12.8893 24.8564 12.468 25.2803 12.468 25.7967C12.468 26.318 12.8893 26.737 13.4135 26.737Z" fill="#B1B2B4"/>
    <path d="M10.3907 27.3353C10.8267 27.3353 11.1795 26.9846 11.1795 26.551C11.1795 26.1174 10.8267 25.7666 10.3907 25.7666C9.95472 25.7666 9.60199 26.1174 9.60199 26.551C9.60689 26.9846 9.95962 27.3353 10.3907 27.3353Z" fill="#B1B2B4"/>
    <path d="M7.7206 27.3016C8.10273 27.3016 8.41136 26.9946 8.41136 26.6098C8.41136 26.2249 8.10273 25.918 7.7206 25.918C7.33848 25.918 7.02985 26.2249 7.02985 26.6098C7.02985 26.9946 7.33848 27.3016 7.7206 27.3016Z" fill="#B1B2B4"/>
    <path d="M7.75016 29.4691C8.18617 29.4691 8.5389 29.1183 8.5389 28.6847C8.5389 28.2512 8.18617 27.9004 7.75016 27.9004C7.31415 27.9004 6.96143 28.2512 6.96143 28.6847C6.96143 29.1183 7.31415 29.4691 7.75016 29.4691Z" fill="#B1B2B4"/>
    <path d="M10.9592 29.8786C11.4834 29.8786 11.9047 29.4547 11.9047 28.9383C11.9047 28.417 11.4834 27.998 10.9592 27.998C10.435 27.998 10.0137 28.417 10.0137 28.9383C10.0137 29.4547 10.4399 29.8786 10.9592 29.8786Z" fill="#B1B2B4"/>
    <path d="M14.7019 29.4648C15.3094 29.4648 15.8042 28.9727 15.8042 28.3637C15.8042 27.7596 15.3094 27.2676 14.7019 27.2676C14.0944 27.2676 13.5996 27.7548 13.5996 28.3637C13.5996 28.9727 14.0944 29.4648 14.7019 29.4648Z" fill="#B1B2B4"/>
    <path d="M16.9064 32.1974C17.6021 32.1974 18.1655 31.6371 18.1655 30.9405C18.1655 30.2438 17.6021 29.6836 16.9064 29.6836C16.2108 29.6836 15.6474 30.2438 15.6474 30.9405C15.6474 31.6371 16.2108 32.1974 16.9064 32.1974Z" fill="#B1B2B4"/>
    <path d="M12.2767 32.5732C12.8842 32.5732 13.379 32.0811 13.379 31.4721C13.379 30.868 12.8842 30.376 12.2767 30.376C11.6692 30.376 11.1744 30.8632 11.1744 31.4721C11.1793 32.0811 11.6692 32.5732 12.2767 32.5732Z" fill="#B1B2B4"/>
    <path d="M9.67057 34.7069C10.278 34.7069 10.7728 34.2149 10.7728 33.6059C10.7728 32.9969 10.278 32.5098 9.67057 32.5098C9.0631 32.5098 8.5683 32.9969 8.5683 33.6059C8.5683 34.2149 9.0631 34.7069 9.67057 34.7069Z" fill="#B1B2B4"/>
    <path d="M11.8406 37.4738C12.5363 37.4738 13.0997 36.9087 13.0997 36.2169C13.0997 35.5251 12.5363 34.96 11.8406 34.96C11.145 34.96 10.5816 35.5202 10.5816 36.2169C10.5816 36.9136 11.145 37.4738 11.8406 37.4738Z" fill="#B1B2B4"/>
    <path d="M17.6266 37.9698C18.4447 37.9698 19.1061 37.3073 19.1061 36.4937C19.1061 35.6753 18.4447 35.0176 17.6266 35.0176C16.8085 35.0176 16.1471 35.6801 16.1471 36.4937C16.152 37.3122 16.8134 37.9698 17.6266 37.9698Z" fill="#B1B2B4"/>
    <path d="M14.452 35.3351C15.1477 35.3351 15.7111 34.77 15.7111 34.0782C15.7111 33.3864 15.1477 32.8213 14.452 32.8213C13.7564 32.8213 13.193 33.3815 13.193 34.0782C13.193 34.7749 13.7564 35.3351 14.452 35.3351Z" fill="#B1B2B4"/>
    <path d="M20.0517 34.8381C20.8698 34.8381 21.5312 34.1755 21.5312 33.3619C21.5312 32.5483 20.8698 31.8857 20.0517 31.8857C19.2336 31.8857 18.5722 32.5483 18.5722 33.3619C18.5722 34.1755 19.2336 34.8381 20.0517 34.8381Z" fill="#B1B2B4"/>
    <path d="M8.34779 32.0123C8.87198 32.0123 9.29329 31.5885 9.29329 31.0721C9.29329 30.5508 8.87198 30.1318 8.34779 30.1318C7.8236 30.1318 7.40228 30.5508 7.40228 31.0721C7.40228 31.5885 7.8236 32.0123 8.34779 32.0123Z" fill="#B1B2B4"/>
  </g>
  <defs>
    <clipPath id="clip0_79_2081">
      <rect width="113.657" height="38" fill="white"/>
    </clipPath>
  </defs>
</svg>