<svg width="179" height="30" viewBox="0 0 179 30" fill="none" xmlns="http://www.w3.org/2000/svg">
<g clip-path="url(#clip0_72_1376)">
<path d="M147.342 3.14893H143.359V26.8633H147.342V3.14893Z" fill="black"/>
<path d="M67.4073 22.9102L71.3905 18.9578V11.053L67.4073 7.10059V22.9102Z" fill="black"/>
<path d="M47.512 7.10132H67.4075L63.4244 3.14893H43.5289V26.8633H63.4244L67.4075 22.9109H47.512V7.10132Z" fill="black"/>
<path d="M74.3568 13.0349V26.8734H98.2353V22.921H78.3399V16.9873H88.2927V13.0349H78.3399V7.10132H98.2353V3.14893H74.3568V13.0349Z" fill="black"/>
<path d="M106.196 3.14893H102.213V26.8633H106.196V3.14893Z" fill="black"/>
<path d="M106.2 3.14893L116.203 26.8633H120.801L110.798 3.14893H106.2Z" fill="black"/>
<path d="M163.898 3.14893L173.902 26.8633H178.5L168.497 3.14893H163.898Z" fill="black"/>
<path d="M139.386 3.14893H135.403V26.8633H139.386V3.14893Z" fill="black"/>
<path d="M120.796 26.8633H125.394L135.397 3.14893H130.799L120.796 26.8633Z" fill="black"/>
<path d="M149.3 26.8633H153.899L163.902 3.14893H159.303L149.3 26.8633Z" fill="black"/>
<path d="M21.7063 0H14.3653L0.5 23.7244L4.17052 30.0101H31.891L35.5615 23.7244L21.7063 0ZM18.0358 26.8622H6.00578L12.0158 16.5739L10.1805 13.4361L16.2005 3.13778L22.2105 13.4261H25.881L31.891 23.7144H19.8711L18.0358 26.8622Z" fill="#EA3794"/>
</g>
<defs>
<clipPath id="clip0_72_1376">
<rect width="178" height="30" fill="white" transform="translate(0.5)"/>
</clipPath>
</defs>
</svg>
