<svg width="235" height="66" viewBox="0 0 235 66" fill="none" xmlns="http://www.w3.org/2000/svg">
<g clip-path="url(#clip0_72_1375)">
<path d="M175.342 21.1489H171.359V44.8633H175.342V21.1489Z" fill="black"/>
<path d="M95.4073 40.9102L99.3905 36.9578V29.053L95.4073 25.1006V40.9102Z" fill="black"/>
<path d="M75.512 25.1013H95.4075L91.4244 21.1489H71.5289V44.8633H91.4244L95.4075 40.9109H75.512V25.1013Z" fill="black"/>
<path d="M102.357 31.0349V44.8734H126.235V40.921H106.34V34.9873H116.293V31.0349H106.34V25.1013H126.235V21.1489H102.357V31.0349Z" fill="black"/>
<path d="M134.196 21.1489H130.213V44.8633H134.196V21.1489Z" fill="black"/>
<path d="M134.2 21.1489L144.203 44.8633H148.801L138.798 21.1489H134.2Z" fill="black"/>
<path d="M191.898 21.1489L201.902 44.8633H206.5L196.497 21.1489H191.898Z" fill="black"/>
<path d="M167.386 21.1489H163.403V44.8633H167.386V21.1489Z" fill="black"/>
<path d="M148.796 44.8633H153.394L163.397 21.1489H158.799L148.796 44.8633Z" fill="black"/>
<path d="M177.3 44.8633H181.899L191.902 21.1489H187.303L177.3 44.8633Z" fill="black"/>
<path d="M49.7063 18H42.3653L28.5 41.7244L32.1705 48.0101H59.891L63.5615 41.7244L49.7063 18ZM46.0358 44.8622H34.0058L40.0158 34.5739L38.1805 31.4361L44.2005 21.1378L50.2105 31.4261H53.881L59.891 41.7144H47.8711L46.0358 44.8622Z" fill="#EA3794"/>
</g>
<defs>
<clipPath id="clip0_72_1375">
<rect width="178" height="30" fill="white" transform="translate(28.5 18)"/>
</clipPath>
</defs>
</svg>
