    <svg xmlns="http://www.w3.org/2000/svg" width="24" height="24" viewBox="0 0 24 24" fill="none">
<path d="M7.25625 17.3595L4.22812 19.8318C4.11886 19.9201 3.9862 19.9764 3.84553 19.994C3.70486 20.0117 3.56195 19.99 3.43338 19.9315C3.30481 19.8731 3.19585 19.7802 3.11914 19.6637C3.04244 19.5472 3.00112 19.4118 3 19.2733V4.73253C3 4.53825 3.07902 4.35193 3.21967 4.21455C3.36032 4.07718 3.55109 4 3.75 4H20.25C20.4489 4 20.6397 4.07718 20.7803 4.21455C20.921 4.35193 21 4.53825 21 4.73253V16.453C21 16.6473 20.921 16.8336 20.7803 16.971C20.6397 17.1084 20.4489 17.1856 20.25 17.1856H7.73438C7.55878 17.1856 7.38907 17.2474 7.25625 17.3595V17.3595Z" stroke="#6F6C82" stroke-width="2" stroke-linecap="round" stroke-linejoin="round"/>
</svg>