<svg xmlns="http://www.w3.org/2000/svg" width="16" height="18" viewBox="0 0 16 18" fill="none">
  <path fill-rule="evenodd" clip-rule="evenodd" d="M10.001 16C10.001 17.5 9.55326 18 9.00098 18L7.00098 18C6.44869 18 6.00098 17.5 6.00098 16C6.00098 15.4477 6.44869 15 7.00098 15L9.00098 15C9.55326 15 10.001 15.4477 10.001 16Z" fill="#151221"/>
  <mask id="path-2-inside-1_194_242" fill="white">
    <path fill-rule="evenodd" clip-rule="evenodd" d="M15.0312 14C14.6754 13.7839 14.3441 13.4779 14.2878 13.0656C14.0057 10.9978 13.9673 8.90063 14.1756 6.81734C14.5407 3.16727 11.6683 0 8.00004 0C4.33176 0 1.45942 3.16727 1.82444 6.81734C2.03278 8.90072 1.99432 10.998 1.7122 13.0659C1.65597 13.478 1.32487 13.7839 0.969246 14L0.965427 14.0023C0.920293 14.0297 0.876331 14.0587 0.833624 14.0894C0.613179 14.248 0.4263 14.4502 0.285713 14.6836C0.104337 14.9846 0 15.3372 0 15.7143C0 15.8721 0.127918 16 0.285713 16H15.7148C15.8726 16 16.0005 15.8721 16.0005 15.7143C16.0005 15.3372 15.8962 14.9846 15.7148 14.6836C15.5742 14.4502 15.3873 14.248 15.1669 14.0894C15.1241 14.0587 15.08 14.0296 15.0348 14.0022L15.0312 14Z"/>
  </mask>
  <path d="M15.0312 14L13.993 15.7094L13.9941 15.7101L15.0312 14ZM14.2878 13.0656L12.3062 13.3359L12.3062 13.3359L14.2878 13.0656ZM14.1756 6.81734L16.1657 7.01635V7.01635L14.1756 6.81734ZM1.82444 6.81734L3.81451 6.61832V6.61832L1.82444 6.81734ZM1.7122 13.0659L-0.269447 12.7955L-0.269447 12.7955L1.7122 13.0659ZM0.969246 14L2.0066 15.7099L2.00792 15.7091L0.969246 14ZM0.965427 14.0023L2.00147 15.7131L2.00278 15.7123L0.965427 14.0023ZM0.833624 14.0894L2.00128 15.7132L2.00129 15.7132L0.833624 14.0894ZM0.285713 14.6836L1.99876 15.7158L1.99877 15.7158L0.285713 14.6836ZM15.7148 14.6836L14.0017 15.7158L14.0017 15.7158L15.7148 14.6836ZM15.1669 14.0894L16.3345 12.4657L16.3345 12.4657L15.1669 14.0894ZM15.0348 14.0022L13.9977 15.7123L13.999 15.7131L15.0348 14.0022ZM16.0695 12.2906C16.0013 12.2492 16.0133 12.2443 16.0587 12.2967C16.1122 12.3583 16.2329 12.5271 16.2695 12.7953L12.3062 13.3359C12.4897 14.681 13.5057 15.4134 13.993 15.7094L16.0695 12.2906ZM16.2695 12.7953C16.0086 10.8828 15.973 8.94315 16.1657 7.01635L12.1856 6.61832C11.9616 8.85811 12.0029 11.1128 12.3062 13.3359L16.2695 12.7953ZM16.1657 7.01635C16.6487 2.18629 12.8489 -2 8.00004 -2V2C10.4877 2 12.4326 4.14824 12.1856 6.61832L16.1657 7.01635ZM8.00004 -2C3.15114 -2 -0.648657 2.18629 -0.165636 7.01635L3.81451 6.61832C3.5675 4.14824 5.51238 2 8.00004 2V-2ZM-0.165636 7.01635C0.0270575 8.94323 -0.00851645 10.883 -0.269447 12.7955L3.69384 13.3362C3.99715 11.113 4.03851 8.8582 3.81451 6.61832L-0.165636 7.01635ZM-0.269447 12.7955C-0.232874 12.5274 -0.112211 12.3587 -0.0587723 12.297C-0.0133594 12.2446 -0.00131792 12.2495 -0.0694234 12.2909L2.00792 15.7091C2.49504 15.4131 3.51041 14.6807 3.69384 13.3362L-0.269447 12.7955ZM-0.0681099 12.2901L-0.0719283 12.2924L2.00278 15.7123L2.0066 15.7099L-0.0681099 12.2901ZM-0.0706179 12.2916C-0.160894 12.3463 -0.248754 12.4044 -0.334036 12.4657L2.00129 15.7132L2.00147 15.7131L-0.0706179 12.2916ZM-0.334027 12.4657C-0.773691 12.7818 -1.14641 13.1851 -1.42734 13.6513L1.99877 15.7158C1.99876 15.7158 1.99882 15.7157 1.99898 15.7155C1.99914 15.7152 1.99937 15.715 1.99965 15.7147C2.00027 15.714 2.00087 15.7135 2.00128 15.7132L-0.334027 12.4657ZM-1.42734 13.6513C-1.79118 14.2552 -2 14.9634 -2 15.7143H2C2 15.711 2.00034 15.7112 1.99979 15.7131C1.99934 15.7147 1.99883 15.7157 1.99876 15.7158L-1.42734 13.6513ZM-2 15.7143C-2 16.9767 -0.97665 18 0.285713 18V14C1.23249 14 2 14.7675 2 15.7143H-2ZM0.285713 18H15.7148V14H0.285713V18ZM15.7148 18C16.9771 18 18.0005 16.9767 18.0005 15.7143H14.0005C14.0005 14.7675 14.768 14 15.7148 14V18ZM18.0005 15.7143C18.0005 14.9634 17.7917 14.2552 17.4278 13.6513L14.0017 15.7158C14.0017 15.7157 14.0011 15.7147 14.0007 15.7131C14.0001 15.7112 14.0005 15.711 14.0005 15.7143H18.0005ZM17.4278 13.6513C17.1469 13.1851 16.7742 12.7818 16.3345 12.4657L13.9992 15.7132C13.9996 15.7135 14.0002 15.714 14.0008 15.7147C14.0011 15.715 14.0013 15.7152 14.0015 15.7155C14.0017 15.7157 14.0017 15.7158 14.0017 15.7158L17.4278 13.6513ZM16.3345 12.4657C16.2491 12.4042 16.1611 12.3461 16.0706 12.2913L13.999 15.7131L13.9992 15.7132L16.3345 12.4657ZM16.072 12.2921L16.0684 12.2899L13.9941 15.7101L13.9977 15.7123L16.072 12.2921Z" fill="#151221" mask="url(#path-2-inside-1_194_242)"/>
</svg>