<svg xmlns="http://www.w3.org/2000/svg" width="24" height="24" viewBox="0 0 24 24" fill="none">
<path d="M12 12.6923C13.5464 12.6923 14.8 11.4525 14.8 9.92308C14.8 8.39367 13.5464 7.15385 12 7.15385C10.4536 7.15385 9.2 8.39367 9.2 9.92308C9.2 11.4525 10.4536 12.6923 12 12.6923Z" stroke="#6F6C82" stroke-width="2" stroke-linecap="round" stroke-linejoin="round"/>
<path d="M19 9.92308C19 16.1538 12 21 12 21C12 21 5 16.1538 5 9.92308C5 8.08696 5.7375 6.32605 7.05025 5.02772C8.36301 3.72939 10.1435 3 12 3C13.8565 3 15.637 3.72939 16.9497 5.02772C18.2625 6.32605 19 8.08696 19 9.92308Z" stroke="#6F6C82" stroke-width="2" stroke-linecap="round" stroke-linejoin="round"/>
</svg>