<svg width="24" height="24" viewBox="0 0 24 24" fill="none" xmlns="http://www.w3.org/2000/svg">
<path d="M12 15.3905C13.7834 15.3905 15.2292 13.8725 15.2292 12C15.2292 10.1275 13.7834 8.60948 12 8.60948C10.2166 8.60948 8.77082 10.1275 8.77082 12C8.77082 13.8725 10.2166 15.3905 12 15.3905Z" stroke="#151221" stroke-width="2" stroke-linecap="round" stroke-linejoin="round"/>
<path d="M16.6689 8.65893C16.8308 8.90239 16.9726 9.15998 17.0927 9.42886L18.8351 10.446C19.0527 11.4692 19.055 12.5298 18.8418 13.554L17.0927 14.5711C16.9726 14.84 16.8308 15.0976 16.6689 15.3411L16.7025 17.4389C15.9641 18.1455 15.0901 18.6778 14.1393 19L12.4238 17.9193C12.1416 17.9405 11.8584 17.9405 11.5762 17.9193L9.86739 18.9929C8.91365 18.6766 8.03678 18.1463 7.2975 17.4389L7.33114 15.3481C7.17053 15.1013 7.02881 14.8415 6.90731 14.5711L5.1649 13.554C4.94733 12.5308 4.94503 11.4702 5.15817 10.446L6.90731 9.42886C7.02738 9.15998 7.16918 8.90239 7.33114 8.65893L7.2975 6.56105C8.03594 5.85453 8.90993 5.32224 9.86067 5L11.5762 6.08073C11.8584 6.05953 12.1416 6.05953 12.4238 6.08073L14.1326 5.00706C15.0864 5.32344 15.9632 5.85367 16.7025 6.56105L16.6689 8.65893Z" stroke="#151221" stroke-width="2" stroke-linecap="round" stroke-linejoin="round"/>
</svg>
