<svg width="24" height="24" viewBox="0 0 24 24" fill="none" xmlns="http://www.w3.org/2000/svg">
<g clip-path="url(#clip0_160_227)">
<g clip-path="url(#clip1_160_227)">
<path d="M22.2158 12.1696L16.6075 14.9978L15.7253 16.3314L15.5602 16.5805L10.9182 23.5976L10.8872 17.0085L1.63111 12.0847L6.55907 9.59838L6.56568 11.0002L4.35791 12.114L12.1175 16.2429L12.1329 19.5119L13.9081 16.8274L14.2257 16.3496L15.0171 15.152L15.7694 14.0158L19.4889 12.1392L17.2694 10.9578L17.2627 9.5349L22.2158 12.1696Z" fill="white"/>
<path d="M15.2251 6.20876L11.389 8.50982C11.3598 8.52712 11.3285 8.53547 11.297 8.53562C11.2342 8.53591 11.1727 8.50264 11.1389 8.44311C11.0872 8.35455 11.1167 8.24024 11.2034 8.18834L15.0395 5.88728C15.1262 5.83468 15.2389 5.86473 15.2896 5.95329C15.3412 6.04256 15.3118 6.15686 15.2251 6.20876ZM15.2315 7.56954L11.3954 9.87136C11.3662 9.88866 11.3349 9.89701 11.3034 9.89716C11.2406 9.89745 11.1791 9.86418 11.1453 9.80541C11.0936 9.71615 11.1231 9.60184 11.2098 9.54994L15.0459 7.24812C15.1333 7.19552 15.2453 7.22557 15.2961 7.31407C15.3476 7.40334 15.3182 7.51764 15.2315 7.56954ZM15.2379 8.93114L11.4018 11.233C11.3726 11.2503 11.3413 11.2586 11.3099 11.2588C11.247 11.2591 11.1855 11.2257 11.1517 11.167C11.1 11.0777 11.1295 10.9634 11.2162 10.9115L15.0523 8.60966C15.1398 8.55706 15.2517 8.58711 15.3025 8.67567C15.354 8.76493 15.3246 8.87924 15.2379 8.93114ZM15.309 2.15118L12.0884 4.083C12.0884 4.083 12.0892 4.08599 12.0892 4.09196C12.1021 4.18141 12.1998 4.92781 12.1661 5.67629C12.1594 5.83073 12.1463 5.98597 12.1258 6.13456C12.0899 6.40553 12.0283 6.65799 11.9305 6.85691C11.9305 6.85691 11.8674 6.78786 11.6811 6.7902C11.6007 6.79134 11.4956 6.80525 11.3636 6.8447C11.0171 6.94627 10.4792 7.2189 9.66115 7.86588L9.6604 7.86588L9.68954 14.0522C9.69154 14.476 10.1442 14.7395 10.5027 14.5244L16.16 11.1307L16.1199 2.62483C16.1179 2.19957 15.6674 1.93762 15.309 2.15118Z" fill="white"/>
<path d="M14.1123 0.593047L14.1186 1.93262L11.2534 3.65148L8.86959 7.0654L8.89402 12.2527L8.49469 12.4928C8.13653 12.7076 7.6836 12.4443 7.68161 12.0203L7.64176 3.55995L8.725 2.90165L13.3013 0.11958C13.6594 -0.0941573 14.1103 0.168019 14.1123 0.593047Z" fill="white"/>
</g>
</g>
<defs>
<clipPath id="clip0_160_227">
<rect width="24" height="24" fill="white"/>
</clipPath>
<clipPath id="clip1_160_227">
<rect width="21" height="24" fill="white" transform="translate(1.57471 0.100098) rotate(-0.269867)"/>
</clipPath>
</defs>
</svg>
