<svg width="41" height="40" viewBox="0 0 41 40" fill="none" xmlns="http://www.w3.org/2000/svg">
<rect x="0.333374" width="40" height="40" rx="20" fill="#F7F7F7"/>
<path d="M24.0001 15.3333C24.0001 16.9899 23.0307 18.5903 21.9157 19.8585C21.3724 20.4765 20.8264 20.9794 20.4157 21.3278C20.3876 21.3516 20.3602 21.3747 20.3334 21.397C20.3067 21.3747 20.2792 21.3516 20.2511 21.3278C19.8404 20.9794 19.2944 20.4765 18.7511 19.8585C17.6362 18.5903 16.6667 16.9899 16.6667 15.3333C16.6667 13.6768 17.6362 12.0764 18.7511 10.8081C19.2944 10.1902 19.8404 9.68722 20.2511 9.33891C20.2792 9.31505 20.3067 9.29195 20.3334 9.26962C20.3602 9.29195 20.3876 9.31505 20.4157 9.33891C20.8264 9.68722 21.3724 10.1902 21.9157 10.8081C23.0307 12.0764 24.0001 13.6768 24.0001 15.3333Z" stroke="#0DCE95" stroke-width="2"/>
<path d="M29.0139 24.3166C28.1489 25.1816 26.8361 25.5567 25.6064 25.6838C25.1115 25.735 24.6576 25.7431 24.2958 25.7349C24.2876 25.3731 24.2957 24.9192 24.3469 24.4243C24.474 23.1946 24.8491 21.8818 25.7141 21.0168C26.5791 20.1518 27.8919 19.7767 29.1216 19.6496C29.6165 19.5984 30.0704 19.5903 30.4322 19.5985C30.4404 19.9603 30.4323 20.4142 30.3811 20.9091C30.254 22.1387 29.8789 23.4516 29.0139 24.3166ZM30.3798 18.7926L30.3799 18.7936L30.3799 18.7932L30.3798 18.7926ZM24.3482 26.5408C24.3482 26.5411 24.3482 26.5411 24.3482 26.5409L24.3482 26.5408Z" stroke="#0DCE95" stroke-width="2"/>
<path d="M11.714 24.3164C10.849 23.4514 10.4739 22.1385 10.3468 20.9089C10.2956 20.414 10.2875 19.9601 10.2957 19.5983C10.6575 19.5901 11.1114 19.5982 11.6063 19.6493C12.836 19.7765 14.1489 20.1516 15.0139 21.0166C15.8789 21.8816 16.254 23.1944 16.3811 24.4241C16.4322 24.919 16.4404 25.3729 16.4322 25.7347C16.0704 25.7429 15.6165 25.7348 15.1216 25.6836C13.8919 25.5565 12.579 25.1814 11.714 24.3164ZM17.238 25.6823L17.237 25.6824L17.2374 25.6824L17.238 25.6823ZM9.48986 19.6507C9.48959 19.6507 9.48956 19.6507 9.48978 19.6507L9.48986 19.6507Z" stroke="#0DCE95" stroke-width="2"/>
<path d="M20.3334 22V30.6667" stroke="#0DCE95" stroke-width="2"/>
<path d="M24.6667 31L16.0001 31" stroke="#0DCE95" stroke-width="2"/>
</svg>
