<svg width="24" height="24" viewBox="0 0 24 24" fill="none" xmlns="http://www.w3.org/2000/svg">
<path d="M10.2308 10.4446C10.2308 12.0505 8.9461 13.3334 7.38461 13.3334C5.82311 13.3334 4.53845 12.0505 4.53845 10.4446C4.53845 8.83862 5.82311 7.55566 7.38461 7.55566C8.9461 7.55566 10.2308 8.83862 10.2308 10.4446Z" stroke="#6F6C82" stroke-width="2"/>
<path d="M12.7692 19.0001C12.7692 15.9932 10.3585 13.5557 7.38462 13.5557C4.41077 13.5557 2 15.9932 2 19.0001" stroke="#6F6C82" stroke-width="2"/>
<path d="M19.4616 8.88889C19.4616 10.4948 18.1769 11.7778 16.6154 11.7778C15.0539 11.7778 13.7693 10.4948 13.7693 8.88889C13.7693 7.28295 15.0539 6 16.6154 6C18.1769 6 19.4616 7.28295 19.4616 8.88889Z" stroke="#6F6C82" stroke-width="2"/>
<path d="M22.0001 17.4444C22.0001 14.4376 19.5893 12 16.6155 12C15.1483 12 13.8182 12.5933 12.847 13.5556" stroke="#6F6C82" stroke-width="2"/>
</svg>
