<svg xmlns="http://www.w3.org/2000/svg" width="22" height="14" viewBox="0 0 22 14" fill="none">
<path d="M9.23088 5.44455C9.23088 7.05049 7.94623 8.33344 6.38473 8.33344C4.82323 8.33344 3.53857 7.05049 3.53857 5.44455C3.53857 3.83862 4.82323 2.55566 6.38473 2.55566C7.94623 2.55566 9.23088 3.83862 9.23088 5.44455Z" stroke="#6F6C82" stroke-width="2"/>
<path d="M11.7692 14.0001C11.7692 10.9932 9.35846 8.55566 6.38462 8.55566C3.41077 8.55566 1 10.9932 1 14.0001" stroke="#6F6C82" stroke-width="2"/>
<path d="M18.4614 3.88889C18.4614 5.49482 17.1767 6.77778 15.6152 6.77778C14.0537 6.77778 12.769 5.49482 12.769 3.88889C12.769 2.28295 14.0537 1 15.6152 1C17.1767 1 18.4614 2.28295 18.4614 3.88889Z" stroke="#6F6C82" stroke-width="2"/>
<path d="M20.9997 12.4444C20.9997 9.43756 18.589 7 15.6151 7C14.148 7 12.8179 7.5933 11.8467 8.55556" stroke="#6F6C82" stroke-width="2"/>
</svg>